<svg width="487.849" height="78.223" viewBox="0 0 487.849 78.223" xmlns="http://www.w3.org/2000/svg"><g id="svgGroup" stroke-linecap="round" fill-rule="evenodd" font-size="9pt" stroke="#e8ffdf" stroke-width="0.25mm" fill="#e8ffdf" style="stroke:#e8ffdf;stroke-width:0.25mm;fill:#e8ffdf"><path d="M 15.43 43.848 L 15.43 74.17 A 5.508 5.508 0 0 1 15.389 74.865 Q 15.293 75.616 14.97 76.032 A 1.343 1.343 0 0 1 14.819 76.196 Q 14.263 76.709 12.994 76.754 A 7.074 7.074 0 0 1 12.744 76.758 L 2.686 76.758 A 6.023 6.023 0 0 1 1.968 76.718 Q 1.059 76.609 0.61 76.196 A 1.556 1.556 0 0 1 0.238 75.648 Q 0.033 75.162 0.005 74.414 A 6.493 6.493 0 0 1 0 74.17 L 0 8.105 A 4.535 4.535 0 0 1 0.048 7.425 Q 0.102 7.07 0.217 6.781 A 2.012 2.012 0 0 1 0.488 6.299 A 23.423 23.423 0 0 1 2.294 4.223 Q 4.022 2.441 6.494 0.488 A 3.62 3.62 0 0 1 6.897 0.236 Q 7.105 0.125 7.298 0.067 A 1.428 1.428 0 0 1 7.715 0 A 1.716 1.716 0 0 1 8.546 0.22 A 2.419 2.419 0 0 1 8.936 0.488 A 48.286 48.286 0 0 1 10.647 1.861 Q 11.665 2.719 12.476 3.516 A 27.77 27.77 0 0 1 13.946 5.071 A 21.597 21.597 0 0 1 14.941 6.299 Q 15.322 6.794 15.406 7.616 A 4.834 4.834 0 0 1 15.43 8.105 L 15.43 31.787 L 15.625 31.787 A 15.242 15.242 0 0 1 16.836 30.387 Q 17.452 29.753 18.194 29.113 A 25.05 25.05 0 0 1 18.408 28.931 Q 20.117 27.49 22.974 26.514 A 15.857 15.857 0 0 1 25.339 25.919 Q 26.553 25.704 27.962 25.61 A 34.836 34.836 0 0 1 30.273 25.537 A 20.952 20.952 0 0 1 38.916 27.393 A 14.408 14.408 0 0 1 44.477 31.841 A 18.521 18.521 0 0 1 45.703 33.643 Q 47.655 36.896 48.162 41.914 A 37.267 37.267 0 0 1 48.34 45.654 L 48.34 74.17 A 5.508 5.508 0 0 1 48.299 74.865 Q 48.203 75.616 47.881 76.032 A 1.343 1.343 0 0 1 47.73 76.196 Q 47.173 76.709 45.904 76.754 A 7.074 7.074 0 0 1 45.654 76.758 L 35.596 76.758 A 6.023 6.023 0 0 1 34.878 76.718 Q 33.969 76.609 33.521 76.196 A 1.556 1.556 0 0 1 33.149 75.648 Q 32.943 75.162 32.915 74.414 A 6.493 6.493 0 0 1 32.91 74.17 L 32.91 48.34 A 20.707 20.707 0 0 0 32.733 45.525 Q 32.279 42.226 30.664 40.454 A 7.403 7.403 0 0 0 26.171 38.106 A 10.584 10.584 0 0 0 24.561 37.988 Q 21.898 37.988 20.071 38.8 A 6.578 6.578 0 0 0 18.652 39.648 Q 16.553 41.309 15.43 43.848 Z M 283.691 45.654 L 283.691 74.17 A 5.508 5.508 0 0 1 283.651 74.865 Q 283.555 75.616 283.232 76.032 A 1.343 1.343 0 0 1 283.081 76.196 Q 282.524 76.709 281.256 76.754 A 7.074 7.074 0 0 1 281.006 76.758 L 270.947 76.758 A 6.023 6.023 0 0 1 270.229 76.718 Q 269.32 76.609 268.872 76.196 A 1.556 1.556 0 0 1 268.5 75.648 Q 268.294 75.162 268.266 74.414 A 6.493 6.493 0 0 1 268.262 74.17 L 268.262 48.193 A 20.007 20.007 0 0 0 268.084 45.427 Q 267.63 42.184 266.016 40.43 A 7.415 7.415 0 0 0 261.577 38.114 A 10.641 10.641 0 0 0 259.912 37.988 A 14.433 14.433 0 0 0 257.675 38.15 Q 256.488 38.337 255.531 38.739 A 6.482 6.482 0 0 0 253.98 39.648 A 10.959 10.959 0 0 0 250.781 43.848 L 250.781 74.17 A 5.508 5.508 0 0 1 250.741 74.865 Q 250.645 75.616 250.322 76.032 A 1.343 1.343 0 0 1 250.171 76.196 Q 249.614 76.709 248.346 76.754 A 7.074 7.074 0 0 1 248.096 76.758 L 238.037 76.758 A 6.023 6.023 0 0 1 237.319 76.718 Q 236.41 76.609 235.962 76.196 A 1.556 1.556 0 0 1 235.59 75.648 Q 235.384 75.162 235.356 74.414 A 6.493 6.493 0 0 1 235.352 74.17 L 235.352 33.252 A 4.535 4.535 0 0 1 235.399 32.572 Q 235.453 32.216 235.569 31.928 A 2.012 2.012 0 0 1 235.84 31.445 A 22.246 22.246 0 0 1 237.125 29.892 A 28.593 28.593 0 0 1 238.306 28.662 A 30.622 30.622 0 0 1 239.692 27.386 Q 240.422 26.752 241.268 26.084 A 54.005 54.005 0 0 1 241.846 25.635 A 2.906 2.906 0 0 1 242.272 25.359 Q 242.523 25.228 242.767 25.178 A 1.479 1.479 0 0 1 243.066 25.146 Q 243.45 25.146 243.909 25.396 A 3.671 3.671 0 0 1 244.287 25.635 Q 246.202 27.139 247.606 28.516 A 28.32 28.32 0 0 1 247.803 28.711 A 25.079 25.079 0 0 1 249.958 31.156 A 22.537 22.537 0 0 1 250.391 31.738 L 250.635 31.738 A 11.099 11.099 0 0 1 251.235 31.031 Q 251.984 30.214 253.125 29.224 A 10.762 10.762 0 0 1 254.627 28.147 Q 255.958 27.345 257.788 26.66 Q 260.791 25.537 265.479 25.537 Q 270.068 25.537 274.219 27.393 A 14.506 14.506 0 0 1 279.748 31.782 A 18.667 18.667 0 0 1 281.03 33.643 A 16.261 16.261 0 0 1 282.753 37.745 Q 283.281 39.65 283.512 41.914 A 36.928 36.928 0 0 1 283.691 45.654 Z M 206.738 26.318 L 206.738 8.105 A 4.535 4.535 0 0 1 206.786 7.425 Q 206.84 7.07 206.956 6.781 A 2.012 2.012 0 0 1 207.227 6.299 A 23.423 23.423 0 0 1 209.033 4.223 Q 210.761 2.441 213.232 0.488 A 3.62 3.62 0 0 1 213.635 0.236 Q 213.844 0.125 214.036 0.067 A 1.428 1.428 0 0 1 214.453 0 A 1.716 1.716 0 0 1 215.284 0.22 A 2.419 2.419 0 0 1 215.674 0.488 A 48.286 48.286 0 0 1 217.385 1.861 Q 218.404 2.719 219.214 3.516 A 27.77 27.77 0 0 1 220.684 5.071 A 21.597 21.597 0 0 1 221.68 6.299 Q 222.061 6.794 222.144 7.616 A 4.834 4.834 0 0 1 222.168 8.105 L 222.168 74.512 Q 222.168 75.439 221.533 76.099 A 2.123 2.123 0 0 1 220.013 76.756 A 2.824 2.824 0 0 1 219.922 76.758 L 212.647 76.758 A 4.748 4.748 0 0 1 211.919 76.705 A 3.574 3.574 0 0 1 211.255 76.538 A 2.311 2.311 0 0 1 210.632 76.191 Q 210.399 76.013 210.179 75.766 A 4.133 4.133 0 0 1 210.107 75.684 L 207.08 71.777 L 206.738 71.777 A 6.912 6.912 0 0 1 206.273 72.402 Q 205.74 73.049 204.878 73.863 A 30.111 30.111 0 0 1 204.468 74.243 A 9.712 9.712 0 0 1 203.035 75.309 Q 201.669 76.154 199.732 76.855 Q 197.562 77.641 194.4 77.877 A 39.01 39.01 0 0 1 191.504 77.979 A 21.961 21.961 0 0 1 186.059 77.333 A 17.038 17.038 0 0 1 180.444 74.78 A 19.387 19.387 0 0 1 174.304 67.645 A 23.919 23.919 0 0 1 173.511 65.942 A 29.667 29.667 0 0 1 171.564 58.842 A 39.748 39.748 0 0 1 171.143 52.93 A 45.1 45.1 0 0 1 171.549 46.685 Q 172.326 41.14 174.585 37.183 Q 178.027 31.152 184.302 28.32 Q 190.392 25.571 198.622 25.491 A 50.965 50.965 0 0 1 199.121 25.488 Q 201.23 25.488 202.82 25.64 A 21.08 21.08 0 0 1 203.98 25.781 A 52.376 52.376 0 0 1 204.875 25.925 Q 205.709 26.066 206.263 26.195 A 8.672 8.672 0 0 1 206.738 26.318 Z M 95.068 56.445 L 74.121 56.445 A 13.302 13.302 0 0 0 74.777 59.751 A 9.349 9.349 0 0 0 77.808 64.111 Q 81.104 66.748 86.768 66.748 Q 89.908 66.748 92.178 66.092 A 10.767 10.767 0 0 0 93.97 65.405 A 65.686 65.686 0 0 0 95.223 64.769 Q 96.948 63.867 97.754 63.281 Q 98.682 62.598 99.854 62.646 A 6.649 6.649 0 0 1 100.439 62.675 Q 101.074 62.732 101.954 62.9 A 28.856 28.856 0 0 1 102.515 63.013 Q 104.248 63.379 105.957 64.355 A 2.945 2.945 0 0 1 106.547 64.751 A 1.746 1.746 0 0 1 107.178 66.113 A 4.713 4.713 0 0 1 107.156 66.538 Q 107.117 66.965 107.007 67.548 A 19.601 19.601 0 0 1 106.934 67.92 Q 106.822 68.443 106.595 69.324 A 91.348 91.348 0 0 1 106.445 69.897 A 13.974 13.974 0 0 1 105.761 71.887 A 12.606 12.606 0 0 1 105.566 72.314 Q 105.308 72.789 104.782 73.226 A 4.926 4.926 0 0 1 104.639 73.34 A 12.529 12.529 0 0 1 104.076 73.709 Q 103.422 74.116 102.453 74.638 A 62.222 62.222 0 0 1 101.489 75.146 Q 100.029 75.901 97.853 76.534 A 39.834 39.834 0 0 1 95.557 77.124 A 29.879 29.879 0 0 1 92.473 77.643 Q 89.648 77.979 86.035 77.979 Q 78.073 77.979 72.112 75.501 A 27.082 27.082 0 0 1 71.68 75.317 A 20.165 20.165 0 0 1 62.207 67.041 A 21.888 21.888 0 0 1 59.789 61.058 Q 58.838 57.26 58.838 52.539 Q 58.838 39.209 65.674 32.373 A 22.92 22.92 0 0 1 78.415 25.971 A 32.544 32.544 0 0 1 83.838 25.537 Q 90.39 25.537 95.149 27.619 A 19.989 19.989 0 0 1 96.314 28.174 A 19.388 19.388 0 0 1 101.682 32.191 A 17.754 17.754 0 0 1 104.077 35.449 A 20.115 20.115 0 0 1 106.611 43.502 A 24.886 24.886 0 0 1 106.738 46.045 A 17.777 17.777 0 0 1 106.528 48.884 Q 105.947 52.465 103.76 54.15 A 9.729 9.729 0 0 1 100.792 55.668 Q 99.443 56.105 97.801 56.297 A 23.656 23.656 0 0 1 95.068 56.445 Z M 447.9 56.445 L 426.953 56.445 A 13.302 13.302 0 0 0 427.609 59.751 A 9.349 9.349 0 0 0 430.64 64.111 Q 433.936 66.748 439.6 66.748 Q 442.74 66.748 445.01 66.092 A 10.767 10.767 0 0 0 446.802 65.405 A 65.686 65.686 0 0 0 448.055 64.769 Q 449.78 63.867 450.586 63.281 Q 451.514 62.598 452.686 62.646 A 6.649 6.649 0 0 1 453.271 62.675 Q 453.906 62.732 454.786 62.9 A 28.856 28.856 0 0 1 455.347 63.013 Q 457.08 63.379 458.789 64.355 A 2.945 2.945 0 0 1 459.379 64.751 A 1.746 1.746 0 0 1 460.01 66.113 A 4.713 4.713 0 0 1 459.988 66.538 Q 459.949 66.965 459.84 67.548 A 19.601 19.601 0 0 1 459.766 67.92 Q 459.654 68.443 459.427 69.324 A 91.348 91.348 0 0 1 459.277 69.897 A 13.974 13.974 0 0 1 458.593 71.887 A 12.606 12.606 0 0 1 458.398 72.314 Q 458.14 72.789 457.614 73.226 A 4.926 4.926 0 0 1 457.471 73.34 A 12.529 12.529 0 0 1 456.908 73.709 Q 456.254 74.116 455.285 74.638 A 62.222 62.222 0 0 1 454.321 75.146 Q 452.861 75.901 450.685 76.534 A 39.834 39.834 0 0 1 448.389 77.124 A 29.879 29.879 0 0 1 445.305 77.643 Q 442.48 77.979 438.867 77.979 Q 430.905 77.979 424.944 75.501 A 27.082 27.082 0 0 1 424.512 75.317 A 20.165 20.165 0 0 1 415.039 67.041 A 21.888 21.888 0 0 1 412.621 61.058 Q 411.67 57.26 411.67 52.539 Q 411.67 39.209 418.506 32.373 A 22.92 22.92 0 0 1 431.247 25.971 A 32.544 32.544 0 0 1 436.67 25.537 Q 443.222 25.537 447.981 27.619 A 19.989 19.989 0 0 1 449.146 28.174 A 19.388 19.388 0 0 1 454.514 32.191 A 17.754 17.754 0 0 1 456.909 35.449 A 20.115 20.115 0 0 1 459.443 43.502 A 24.886 24.886 0 0 1 459.57 46.045 A 17.777 17.777 0 0 1 459.36 48.884 Q 458.779 52.465 456.592 54.15 A 9.729 9.729 0 0 1 453.624 55.668 Q 452.275 56.105 450.633 56.297 A 23.656 23.656 0 0 1 447.9 56.445 Z M 160.645 46.875 L 160.645 74.512 A 2.798 2.798 0 0 1 160.524 75.347 A 2.353 2.353 0 0 1 160.132 76.099 Q 159.714 76.636 158.827 76.735 A 3.846 3.846 0 0 1 158.398 76.758 L 151.074 76.758 A 4.748 4.748 0 0 1 150.347 76.705 A 3.574 3.574 0 0 1 149.683 76.538 A 2.311 2.311 0 0 1 149.059 76.191 Q 148.827 76.013 148.607 75.766 A 4.133 4.133 0 0 1 148.535 75.684 L 145.508 71.777 L 145.166 71.777 A 12.696 12.696 0 0 1 139.136 76.514 A 21.153 21.153 0 0 1 134.516 77.698 A 28.609 28.609 0 0 1 130.42 77.979 A 20.722 20.722 0 0 1 125.643 77.458 A 14.097 14.097 0 0 1 119.019 73.95 A 13.271 13.271 0 0 1 115.187 66.873 A 19.671 19.671 0 0 1 114.795 62.842 A 17.562 17.562 0 0 1 115.612 57.439 A 16.297 16.297 0 0 1 116.138 56.03 A 12.071 12.071 0 0 1 118.578 52.401 A 16.487 16.487 0 0 1 120.825 50.464 A 18.25 18.25 0 0 1 123.711 48.785 Q 125.241 48.061 127.103 47.454 A 42.081 42.081 0 0 1 130.2 46.582 A 50.317 50.317 0 0 1 135.08 45.671 Q 137.663 45.309 140.671 45.102 A 115.773 115.773 0 0 1 145.606 44.873 Q 145.606 42.178 144.788 40.399 A 5.671 5.671 0 0 0 143.384 38.477 A 6.978 6.978 0 0 0 141.015 37.141 Q 139.976 36.784 138.703 36.633 A 16.905 16.905 0 0 0 136.719 36.523 Q 133.677 36.523 131.48 37.313 A 9.579 9.579 0 0 0 130.176 37.891 Q 127.637 39.258 127.002 39.746 Q 126.344 40.31 125.415 40.196 A 2.8 2.8 0 0 1 125.342 40.186 A 15.368 15.368 0 0 1 123.805 39.873 A 19.614 19.614 0 0 1 122.534 39.502 A 78.237 78.237 0 0 1 120.99 38.977 A 98.132 98.132 0 0 1 119.336 38.379 A 1.792 1.792 0 0 1 119.13 38.279 Q 118.973 38.192 118.799 38.062 A 0.824 0.824 0 0 1 118.508 37.644 A 1.219 1.219 0 0 1 118.457 37.402 Q 118.457 37.158 118.506 36.792 A 7.228 7.228 0 0 1 118.537 36.587 Q 118.586 36.288 118.685 35.78 A 69.528 69.528 0 0 1 118.75 35.449 Q 118.883 34.785 119.106 33.907 A 56.258 56.258 0 0 1 119.336 33.032 A 30.023 30.023 0 0 1 119.528 32.353 Q 119.746 31.621 119.947 31.106 A 7.987 7.987 0 0 1 120.068 30.811 A 3.701 3.701 0 0 1 120.609 30.054 Q 120.893 29.742 121.269 29.446 A 7.071 7.071 0 0 1 121.533 29.248 A 3.459 3.459 0 0 1 122.033 28.923 Q 122.95 28.412 125.059 27.607 A 87.067 87.067 0 0 1 126.563 27.051 Q 130.762 25.537 138.721 25.537 Q 156.028 25.537 159.672 38.835 A 30.461 30.461 0 0 1 160.645 46.875 Z M 370.85 33.74 L 370.85 33.496 Q 370.85 36.67 371.997 41.821 A 89.103 89.103 0 0 0 373.765 48.48 A 109.44 109.44 0 0 0 375.147 52.686 A 72.416 72.416 0 0 0 378.199 60.102 A 62.185 62.185 0 0 0 379.785 63.184 L 380.029 63.184 A 53.941 53.941 0 0 0 383.501 56.412 A 60.178 60.178 0 0 0 383.936 55.371 Q 385.645 51.172 386.816 46.973 A 92.326 92.326 0 0 0 387.848 42.944 A 68.373 68.373 0 0 0 388.599 39.258 A 55.984 55.984 0 0 0 388.921 37.189 Q 389.2 35.124 389.209 33.643 A 16.138 16.138 0 0 0 389.209 33.545 L 389.209 33.74 A 4.535 4.535 0 0 1 389.257 33.06 Q 389.311 32.704 389.426 32.416 A 2.012 2.012 0 0 1 389.697 31.934 A 26.474 26.474 0 0 1 391.084 30.38 A 33.569 33.569 0 0 1 392.334 29.15 A 35.485 35.485 0 0 1 393.78 27.874 Q 394.536 27.241 395.404 26.572 A 61.118 61.118 0 0 1 395.996 26.123 A 3.35 3.35 0 0 1 396.434 25.855 Q 396.872 25.635 397.266 25.635 A 1.878 1.878 0 0 1 398.331 25.97 A 2.462 2.462 0 0 1 398.535 26.123 Q 400.423 27.508 401.807 28.748 A 28.235 28.235 0 0 1 402.246 29.15 Q 403.76 30.566 404.834 31.934 Q 405.322 32.568 405.322 33.643 L 405.322 33.74 L 405.322 33.545 L 405.322 33.643 Q 405.273 36.279 403.955 41.04 Q 402.638 45.796 400.419 51.478 A 230.403 230.403 0 0 1 400.415 51.489 A 136.592 136.592 0 0 1 395.459 62.671 Q 392.769 68.076 389.984 72.086 A 54.265 54.265 0 0 1 389.893 72.217 A 26.927 26.927 0 0 1 388.908 73.566 Q 387.778 75.011 386.816 75.732 A 3.917 3.917 0 0 1 385.766 76.273 Q 384.396 76.758 382.08 76.758 L 376.904 76.758 A 19.904 19.904 0 0 1 375.282 76.697 Q 373.716 76.568 372.754 76.169 A 3.443 3.443 0 0 1 372.046 75.781 A 6.87 6.87 0 0 1 371.187 75.025 Q 370.353 74.172 369.412 72.778 A 28.805 28.805 0 0 1 369.043 72.217 A 78.293 78.293 0 0 1 366.376 67.645 A 105.394 105.394 0 0 1 363.745 62.427 A 146.617 146.617 0 0 1 359.009 51.196 Q 356.919 45.598 355.656 40.946 A 83.827 83.827 0 0 1 355.615 40.796 Q 354.56 36.878 354.382 34.462 A 12.533 12.533 0 0 1 354.346 33.545 A 2.917 2.917 0 0 1 354.434 32.808 A 2.188 2.188 0 0 1 354.883 31.934 Q 356.581 29.83 359.366 27.587 A 50.515 50.515 0 0 1 361.279 26.123 A 3.86 3.86 0 0 1 361.723 25.866 Q 362.195 25.635 362.598 25.635 A 1.865 1.865 0 0 1 363.265 25.765 Q 363.585 25.887 363.916 26.123 Q 366.162 27.734 367.7 29.15 A 27.427 27.427 0 0 1 369.122 30.554 A 20.789 20.789 0 0 1 370.313 31.934 Q 370.85 32.568 370.85 33.74 Z M 486.914 73.096 L 476.709 77.783 Q 475.731 78.202 475.286 78.222 A 0.964 0.964 0 0 1 475.244 78.223 A 1.295 1.295 0 0 1 474.807 78.142 Q 474.635 78.081 474.457 77.973 A 2.587 2.587 0 0 1 474.316 77.881 A 3.479 3.479 0 0 1 473.702 77.311 Q 472.832 76.316 471.798 74.142 A 32.883 32.883 0 0 1 471.753 74.048 A 11.649 11.649 0 0 1 471.001 71.85 Q 470.44 69.559 470.336 66.223 A 50.545 50.545 0 0 1 470.313 64.648 L 470.313 8.105 A 4.535 4.535 0 0 1 470.36 7.425 Q 470.414 7.07 470.53 6.781 A 2.012 2.012 0 0 1 470.801 6.299 A 23.423 23.423 0 0 1 472.607 4.223 Q 474.335 2.441 476.807 0.488 A 3.62 3.62 0 0 1 477.21 0.236 Q 477.418 0.125 477.611 0.067 A 1.428 1.428 0 0 1 478.027 0 A 1.716 1.716 0 0 1 478.858 0.22 A 2.419 2.419 0 0 1 479.248 0.488 A 48.286 48.286 0 0 1 480.959 1.861 Q 481.978 2.719 482.788 3.516 A 27.77 27.77 0 0 1 484.258 5.071 A 21.597 21.597 0 0 1 485.254 6.299 Q 485.635 6.794 485.719 7.616 A 4.834 4.834 0 0 1 485.742 8.105 L 485.742 61.67 Q 485.742 64.137 486.057 66.046 A 16.554 16.554 0 0 0 486.279 67.163 Q 486.657 68.758 487.131 69.908 A 9.813 9.813 0 0 0 487.549 70.801 Q 488.379 72.412 486.914 73.096 Z M 301.367 71.436 A 22.603 22.603 0 0 0 303.177 72.921 Q 310.032 77.979 320.85 77.979 A 45.728 45.728 0 0 0 321.772 77.969 Q 326.195 77.88 329.933 76.928 A 23.961 23.961 0 0 0 340.772 71.094 Q 345.655 66.441 347.238 58.934 A 38.106 38.106 0 0 0 347.998 51.074 Q 347.998 46.141 346.89 42.147 A 20.679 20.679 0 0 0 340.772 32.007 A 24.578 24.578 0 0 0 329.709 26.409 A 36.199 36.199 0 0 0 321.533 25.537 Q 316.67 25.537 312.569 26.539 A 25.314 25.314 0 0 0 301.636 32.104 Q 294.19 38.672 294.19 51.953 A 43.552 43.552 0 0 0 294.252 54.308 Q 294.474 58.414 295.491 61.812 A 20.759 20.759 0 0 0 301.367 71.436 Z M 321.338 66.162 A 13.69 13.69 0 0 0 324.577 65.803 A 8.765 8.765 0 0 0 329.443 62.817 A 9.509 9.509 0 0 0 330.943 60.11 Q 331.955 57.409 332.138 53.265 A 43.116 43.116 0 0 0 332.178 51.367 A 34.356 34.356 0 0 0 332.005 47.795 Q 331.603 43.962 330.263 41.681 A 7.709 7.709 0 0 0 329.419 40.503 Q 326.829 37.546 321.892 37.365 A 17.838 17.838 0 0 0 321.24 37.354 A 12.931 12.931 0 0 0 317.651 37.826 A 9.625 9.625 0 0 0 313.013 40.747 Q 310.138 43.995 310.015 51.114 A 37.287 37.287 0 0 0 310.01 51.758 A 35.268 35.268 0 0 0 310.188 55.441 Q 310.724 60.522 312.866 62.939 A 9.098 9.098 0 0 0 317.301 65.651 Q 318.763 66.066 320.514 66.144 A 18.525 18.525 0 0 0 321.338 66.162 Z M 206.738 59.619 L 206.738 39.16 A 6.517 6.517 0 0 0 206.284 38.904 Q 205.505 38.501 204.15 37.988 Q 202.344 37.305 199.072 37.305 A 14.671 14.671 0 0 0 195.425 37.731 A 9.645 9.645 0 0 0 189.99 41.26 A 13.774 13.774 0 0 0 187.685 46.024 Q 186.963 48.638 186.963 51.904 Q 186.963 58.838 189.502 62.158 Q 191.979 65.397 196.035 65.477 A 10.47 10.47 0 0 0 196.24 65.479 Q 199.251 65.479 201.379 64.699 A 8.507 8.507 0 0 0 203.149 63.818 A 10.074 10.074 0 0 0 205.496 61.706 A 8.857 8.857 0 0 0 206.738 59.619 Z M 74.023 46.436 L 89.941 46.436 Q 92.432 46.436 92.432 44.141 A 9.134 9.134 0 0 0 91.93 41.063 A 8.014 8.014 0 0 0 90.259 38.306 A 6.854 6.854 0 0 0 87.18 36.407 Q 86.063 36.059 84.709 35.969 A 14.639 14.639 0 0 0 83.74 35.937 A 11.672 11.672 0 0 0 81.041 36.229 Q 79.124 36.685 77.797 37.852 A 6.962 6.962 0 0 0 76.782 38.965 Q 74.561 41.992 74.023 46.436 Z M 426.856 46.436 L 442.773 46.436 Q 445.264 46.436 445.264 44.141 A 9.134 9.134 0 0 0 444.762 41.063 A 8.014 8.014 0 0 0 443.091 38.306 A 6.854 6.854 0 0 0 440.012 36.407 Q 438.895 36.059 437.542 35.969 A 14.639 14.639 0 0 0 436.572 35.937 A 11.672 11.672 0 0 0 433.873 36.229 Q 431.956 36.685 430.629 37.852 A 6.962 6.962 0 0 0 429.614 38.965 Q 427.393 41.992 426.856 46.436 Z M 145.508 59.619 L 145.508 54.199 A 70.488 70.488 0 0 0 141.959 54.282 Q 137.766 54.494 135.327 55.249 A 15.626 15.626 0 0 0 133.641 55.871 Q 131.93 56.626 131.083 57.623 A 3.902 3.902 0 0 0 130.811 57.983 A 6.433 6.433 0 0 0 129.688 61.621 A 7.093 7.093 0 0 0 129.823 63.059 Q 129.993 63.882 130.379 64.492 A 3.338 3.338 0 0 0 131.445 65.552 Q 133.203 66.65 135.791 66.65 Q 138.908 66.65 140.967 65.546 A 6.828 6.828 0 0 0 142.578 64.355 A 13.655 13.655 0 0 0 144.118 62.54 Q 145.121 61.107 145.508 59.619 Z M 354.346 33.74 L 354.346 33.496 L 354.346 33.545 L 354.346 33.74 Z" vector-effect="non-scaling-stroke"/></g></svg>